<?xml version="1.0"?>
<svg xmlns="http://www.w3.org/2000/svg" id="Layer_1" data-name="Layer 1" viewBox="0 0 512 512" width="512" height="512"><title>Heart</title><path d="M429.09,91.754c-19.36-17.49-43.782-26.735-70.629-26.735-30.914,0-64.927,12.826-98.359,37.092a7,7,0,0,1-8.3-.054c-33.933-25.316-67.189-38.152-98.843-38.152-26.914,0-51.3,9.284-70.531,26.849C63.019,108.487,49.729,133.823,44,164.022,26.212,256.748,83.88,380.3,252.809,447.4a7.584,7.584,0,0,0,6.341.007c78.26-31.746,138.78-77.969,175.032-133.683C465.4,265.749,477.4,212.605,467.989,164.078,461.981,134.328,448.53,109.317,429.09,91.754Zm-259.364,31.18c-44.827,0-60.886,38.58-66.465,70.943a7,7,0,0,1-6.89,5.812,7.091,7.091,0,0,1-1.2-.1,7,7,0,0,1-5.709-8.087c9.179-53.244,37.682-82.566,80.262-82.566a7,7,0,0,1,0,14Z"/></svg>
